<svg xmlns="http://www.w3.org/2000/svg" xmlns:xlink="http://www.w3.org/1999/xlink" viewBox="0,0,256,256" width="50px" height="50px"><g fill="#ffffff" fill-rule="nonzero" stroke="none" stroke-width="1" stroke-linecap="butt" stroke-linejoin="miter" stroke-miterlimit="10" stroke-dasharray="" stroke-dashoffset="0" font-family="none" font-weight="none" font-size="none" text-anchor="none" style="mix-blend-mode: normal"><g transform="scale(5.12,5.12)"><path d="M12,3c-4.96,0 -9,4.04 -9,9v26c0,4.96 4.04,9 9,9h26c4.96,0 9,-4.04 9,-9v-26c0,-4.96 -4.04,-9 -9,-9zM38,8h3c0.55,0 1,0.45 1,1v3c0,0.55 -0.45,1 -1,1h-3c-0.55,0 -1,-0.45 -1,-1v-3c0,-0.55 0.45,-1 1,-1zM25,10c5.33,0 10.01969,2.8 12.67969,7h4.32031v20c0,2.76 -2.24,5 -5,5h-24c-2.76,0 -5,-2.24 -5,-5v-20h4.32031c2.66,-4.2 7.34969,-7 12.67969,-7zM25,12c-7.17,0 -13,5.83 -13,13c0,7.17 5.83,13 13,13c7.17,0 13,-5.83 13,-13c0,-7.17 -5.83,-13 -13,-13zM25,16c4.96,0 9,4.04 9,9c0,4.96 -4.04,9 -9,9c-4.96,0 -9,-4.04 -9,-9c0,-4.96 4.04,-9 9,-9z"></path></g></g></svg>